<svg width="49" height="48" viewBox="0 0 49 48" fill="none" xmlns="http://www.w3.org/2000/svg">
<path d="M6.5 0C4.9087 0 3.38258 0.632141 2.25736 1.75736C1.13214 2.88258 0.5 4.4087 0.5 6L0.5 42C0.5 43.5913 1.13214 45.1174 2.25736 46.2426C3.38258 47.3679 4.9087 48 6.5 48H42.5C44.0913 48 45.6174 47.3679 46.7426 46.2426C47.8679 45.1174 48.5 43.5913 48.5 42V6C48.5 4.4087 47.8679 2.88258 46.7426 1.75736C45.6174 0.632141 44.0913 0 42.5 0L6.5 0ZM26 13.5V22.5H35C35.3978 22.5 35.7794 22.658 36.0607 22.9393C36.342 23.2206 36.5 23.6022 36.5 24C36.5 24.3978 36.342 24.7794 36.0607 25.0607C35.7794 25.342 35.3978 25.5 35 25.5H26V34.5C26 34.8978 25.842 35.2794 25.5607 35.5607C25.2794 35.842 24.8978 36 24.5 36C24.1022 36 23.7206 35.842 23.4393 35.5607C23.158 35.2794 23 34.8978 23 34.5V25.5H14C13.6022 25.5 13.2206 25.342 12.9393 25.0607C12.658 24.7794 12.5 24.3978 12.5 24C12.5 23.6022 12.658 23.2206 12.9393 22.9393C13.2206 22.658 13.6022 22.5 14 22.5H23V13.5C23 13.1022 23.158 12.7206 23.4393 12.4393C23.7206 12.158 24.1022 12 24.5 12C24.8978 12 25.2794 12.158 25.5607 12.4393C25.842 12.7206 26 13.1022 26 13.5Z" fill="#0BA0D1"/>
</svg>
